<svg xmlns="http://www.w3.org/2000/svg" version="1.1" xmlns:xlink="http://www.w3.org/1999/xlink" xmlns:svgjs="http://svgjs.dev/svgjs" width="2000" height="1500" viewBox="0 0 2000 1500"><rect width="2000" height="1500" fill="#000000"></rect><g transform="matrix(0.26852846401718583,0,0,0.26852846401718583,731.6131915997179,249.8529406147336)"><svg viewBox="0 0 189 352" data-background-color="#0069dc" preserveAspectRatio="xMidYMid meet" height="3724" width="2000" xmlns="http://www.w3.org/2000/svg" xmlns:xlink="http://www.w3.org/1999/xlink"><g id="tight-bounds" transform="matrix(1,0,0,1,-0.049851161389511844,0.05176490361378683)"><svg viewBox="0 0 189.09970232277902 247.2" height="247.2" width="189.09970232277902"><g><svg viewBox="0 0 198.55889332396518 259.56549813019745" height="247.2" width="189.09970232277902"><g><svg viewBox="0 0 198.55889332396518 259.56549813019745" height="259.56549813019745" width="198.55889332396518"><g id="textblocktransform"><svg viewBox="0 0 198.55889332396518 259.56549813019745" height="259.56549813019745" width="198.55889332396518" id="textblock"><g><rect width="198.55889332396518" height="246.672304" fill="none" stroke-width="8.962371322224001" stroke="#ffffff" data-fill-palette-color="none" data-stroke-palette-color="tertiary"></rect><rect width="198.55889332396518" height="122.826816452448" y="246.672304" fill="#ffffff" data-fill-palette-color="tertiary"></rect></g><g><svg viewBox="0 0 198.55889332396518 245.672304" height="245.672304" width="198.55889332396518"><g transform="matrix(1,0,0,1,23.461705032,23.461705032)"><svg width="151.63548325996518" viewBox="-0.24 -37.667999944875 29.289999999999996 38.397999944875" height="198.748893936" data-palette-color="#ff7722"><path d="M28.17-18.7L28.37-18.7Q28.47-18.36 28.76-17.97 29.05-17.58 29.05-17.38L29.05-17.38Q28.66-16.46 28.47-15.94 28.27-15.43 27.83-15.04L27.83-15.04Q27.83-14.89 27.54-14.4 27.25-13.92 26.88-13.35 26.51-12.79 26.15-12.28 25.78-11.77 25.68-11.57L25.68-11.57Q25.44-11.18 25.29-10.82 25.15-10.45 24.95-10.11L24.95-10.11Q24.51-9.33 24.05-8.64 23.58-7.96 23.19-7.13L23.19-7.13Q22.95-6.88 22.75-6.59 22.56-6.3 22.31-6.05L22.31-6.05Q21.73-4.98 20.97-4.05 20.21-3.13 19.58-2L19.58-2Q20.12-1.46 20.12-0.63L20.12-0.63Q20.12-0.2 19.87-0.17 19.63-0.15 19.43-0.05L19.43-0.05Q18.95 0.29 18.55 0.34 18.16 0.39 17.92 0.39L17.92 0.39Q17.38 0.39 16.75 0.37 16.11 0.34 15.67 0.44L15.67 0.44Q15.53 0.49 15.33 0.61 15.14 0.73 15.04 0.73L15.04 0.73Q14.65 0.73 14.48 0.61 14.31 0.49 14.01 0.39L14.01 0.39Q13.62-0.05 13.31-0.54 12.99-1.03 12.65-1.51L12.65-1.51Q12.35-1.86 12.01-2.12 11.67-2.39 11.38-2.78L11.38-2.78Q10.6-3.91 9.79-4.93 8.98-5.96 8.15-6.98L8.15-6.98Q7.76-7.52 7.3-8.01 6.84-8.5 6.45-8.98L6.45-8.98Q6.05-9.52 5.71-10.11 5.37-10.69 4.98-11.23L4.98-11.23Q4.69-11.72 4.15-12.43 3.61-13.13 3.03-13.87 2.44-14.6 1.83-15.26 1.22-15.92 0.78-16.26L0.78-16.26Q0.78-16.6 0.59-16.75 0.39-16.89 0.15-17.09L0.15-17.09Q0.05-17.33-0.1-17.55-0.24-17.77-0.24-18.07L-0.24-18.07Q-0.24-18.41-0.1-18.7L-0.1-18.7Q0-18.9 0.02-19.07 0.05-19.24 0.15-19.43L0.15-19.43Q0.39-20.07 0.85-20.56 1.32-21.04 1.56-21.68L1.56-21.68Q1.61-21.88 1.61-22.05 1.61-22.22 1.71-22.41L1.71-22.41Q1.86-22.75 2.15-23.02 2.44-23.29 2.69-23.63L2.69-23.63Q2.93-24.07 3.17-24.51 3.42-24.95 3.66-25.39L3.66-25.39Q4.35-26.51 5.18-27.56 6.01-28.61 6.74-29.64L6.74-29.64Q7.42-30.62 8.01-31.57 8.59-32.52 9.28-33.5L9.28-33.5Q9.62-33.98 10.06-34.59 10.5-35.21 10.96-35.79 11.43-36.38 11.91-36.89 12.4-37.4 12.89-37.65L12.89-37.65Q13.72-37.74 13.96-37.38 14.21-37.01 14.65-37.01L14.65-37.01Q15.33-36.87 15.58-36.57 15.82-36.28 16.06-36.04L16.06-36.04Q16.7-36.04 17.14-35.79 17.58-35.55 18.02-35.06L18.02-35.06Q17.82-34.52 17.5-34.08 17.19-33.64 16.94-33.15L16.94-33.15Q16.55-33.01 16.38-32.67 16.21-32.32 15.87-32.08L15.87-32.08Q15.33-31.25 14.79-30.44 14.26-29.64 13.72-28.91L13.72-28.91Q13.48-28.61 13.18-28.44 12.89-28.27 12.65-27.93L12.65-27.93Q12.55-27.78 12.5-27.61 12.45-27.44 12.35-27.29L12.35-27.29Q11.77-26.37 11.04-25.49 10.3-24.61 9.77-23.63L9.77-23.63Q9.52-23.29 9.38-22.92 9.23-22.56 9.03-22.22L9.03-22.22Q8.84-21.88 8.47-21.36 8.11-20.85 7.74-20.31 7.37-19.78 7.1-19.24 6.84-18.7 6.84-18.36L6.84-18.36Q6.88-18.12 7.47-17.38 8.06-16.65 8.79-15.82 9.52-14.99 10.18-14.23 10.84-13.48 10.99-13.33L10.99-13.33Q11.08-13.09 11.72-12.28 12.35-11.47 13.16-10.52 13.96-9.57 14.75-8.69 15.53-7.81 15.82-7.42L15.82-7.42 16.21-6.79Q16.31-6.84 16.72-7.47 17.14-8.11 17.58-8.89 18.02-9.67 18.38-10.35 18.75-11.04 18.85-11.23L18.85-11.23Q18.99-11.38 19.34-12.01 19.68-12.65 20.09-13.38 20.51-14.11 20.83-14.75 21.14-15.38 21.19-15.58L21.19-15.58 20.61-15.58Q19.82-15.58 19.07-15.5 18.31-15.43 17.53-15.19L17.53-15.19Q17.19-15.23 16.94-15.38 16.7-15.53 16.36-15.67L16.36-15.67Q16.21-16.16 16.24-16.36 16.26-16.55 16.21-16.65L16.21-16.65Q16.16-16.85 16.09-16.94 16.02-17.04 16.02-17.24L16.02-17.24Q16.02-17.58 15.92-17.8 15.82-18.02 15.72-18.31L15.72-18.31Q15.72-18.51 15.75-18.7 15.77-18.9 15.67-19.04L15.67-19.04Q15.77-19.92 15.53-20.31L15.53-20.31Q15.53-21 15.72-21.19 15.92-21.39 16.02-21.78L16.02-21.78Q16.46-21.63 16.77-21.85 17.09-22.07 17.43-22.07L17.43-22.07Q18.21-22.07 18.7-22.31L18.7-22.31Q19.14-22.36 19.6-22.36 20.07-22.36 20.51-22.46L20.51-22.46Q20.75-22.51 20.92-22.56 21.09-22.61 21.34-22.66L21.34-22.66Q21.63-22.71 21.97-22.71 22.31-22.71 22.61-22.71L22.61-22.71Q23.39-22.8 24.17-22.83 24.95-22.85 25.73-22.9L25.73-22.9Q25.98-22.8 26.2-22.75 26.42-22.71 26.61-22.61L26.61-22.61Q26.76-22.51 26.86-22.39 26.95-22.27 27.2-22.22L27.2-22.22Q27.44-21.97 27.54-21.73L27.54-21.73Q27.44-21.29 27.59-21.09L27.59-21.09Q27.34-20.85 27.32-20.43 27.29-20.02 27.25-19.68L27.25-19.68Q27.59-19.58 27.83-19.14 28.08-18.7 28.17-18.7L28.17-18.7Z" opacity="1" transform="matrix(1,0,0,1,0,0)" fill="#ffffff" class="wordmark-text-0" data-fill-palette-color="primary" id="text-0"></path></svg></g></svg></g><g transform="matrix(1,0,0,1,37.92474862487735,245.672304)"><svg viewBox="0 0 122.70939607421047 13.893194130197482" height="13.893194130197482" width="122.70939607421047"><g transform="matrix(1,0,0,1,20,3.2)"><svg width="82.70939607421047" viewBox="0.440277722225 -35.35 395.659722277775 35.85" height="7.493194130197482" data-palette-color="#f4c430"><path d="M12.65 0L6.6 0Q6.4 0 6.35-0.25L6.35-0.25 0.45-34.6Q0.4-34.8 0.6-34.8L0.6-34.8 6.2-34.8Q6.4-34.8 6.45-34.6L6.45-34.6 9.65-12 12.95-34.6Q13-34.8 13.25-34.8L13.25-34.8 17.75-34.8Q17.95-34.8 18-34.6L18-34.6 21.25-12 24.5-34.6Q24.55-34.8 24.75-34.8L24.75-34.8 30.3-34.8Q30.55-34.8 30.5-34.6L30.5-34.6 24.55-0.25Q24.5-0.15 24.4-0.08 24.3 0 24.3 0L24.3 0 18.25 0Q18.1 0 18-0.25L18-0.25 15.45-18.2 12.9-0.25Q12.85 0 12.65 0L12.65 0ZM39.3 0L33.65 0Q33.45 0 33.45-0.25L33.45-0.25 33.55-34.6Q33.55-34.8 33.75-34.8L33.75-34.8 43.85-34.8Q46.55-34.8 48.82-33.48 51.1-32.15 52.45-29.93 53.8-27.7 53.8-24.9L53.8-24.9Q53.8-23.05 53.25-21.58 52.7-20.1 51.95-19.07 51.2-18.05 50.6-17.55L50.6-17.55Q53.3-14.55 53.3-10.5L53.3-10.5 53.35-0.25Q53.35 0 53.1 0L53.1 0 47.45 0Q47.25 0 47.25-0.15L47.25-0.15 47.25-10.5Q47.25-12.3 45.97-13.63 44.7-14.95 42.85-14.95L42.85-14.95 39.55-14.95 39.5-0.25Q39.5 0 39.3 0L39.3 0ZM39.55-28.8L39.55-20.95 43.85-20.95Q45.4-20.95 46.6-22.1 47.8-23.25 47.8-24.9L47.8-24.9Q47.8-26.5 46.62-27.65 45.45-28.8 43.85-28.8L43.85-28.8 39.55-28.8ZM63.45 0L57.8 0Q57.55 0 57.55-0.25L57.55-0.25 57.59-34.6Q57.59-34.8 57.8-34.8L57.8-34.8 63.4-34.8Q63.59-34.8 63.59-34.6L63.59-34.6 63.65-0.25Q63.65 0 63.45 0L63.45 0ZM78.69 0L73.04 0Q72.84 0 72.84-0.25L72.84-0.25 72.84-28.75 66.34-28.75Q66.09-28.75 66.09-29L66.09-29 66.14-34.6Q66.14-34.8 66.34-34.8L66.34-34.8 85.34-34.8Q85.59-34.8 85.59-34.6L85.59-34.6 85.59-29Q85.59-28.75 85.39-28.75L85.39-28.75 78.84-28.75 78.89-0.25Q78.89 0 78.69 0L78.69 0ZM104.39 0L88.24 0Q88.04 0 88.04-0.25L88.04-0.25 88.09-34.6Q88.09-34.8 88.29-34.8L88.29-34.8 104.34-34.8Q104.54-34.8 104.54-34.55L104.54-34.55 104.54-28.95Q104.54-28.75 104.34-28.75L104.34-28.75 94.09-28.75 94.09-20.95 104.34-20.95Q104.54-20.95 104.54-20.75L104.54-20.75 104.59-15.1Q104.59-14.9 104.39-14.9L104.39-14.9 94.09-14.9 94.09-6.15 104.39-6.15Q104.59-6.15 104.59-5.9L104.59-5.9 104.59-0.2Q104.59 0 104.39 0L104.39 0ZM125.64 0.5L125.64 0.5Q122.89 0.5 120.66-0.88 118.44-2.25 117.14-4.55 115.84-6.85 115.84-9.7L115.84-9.7 115.89-25.3Q115.89-28.05 117.16-30.33 118.44-32.6 120.66-33.98 122.89-35.35 125.64-35.35L125.64-35.35Q128.39-35.35 130.59-34 132.79-32.65 134.09-30.38 135.39-28.1 135.39-25.3L135.39-25.3 135.39-23Q135.39-22.8 135.19-22.8L135.19-22.8 129.59-22.8Q129.39-22.8 129.39-23L129.39-23 129.39-25.3Q129.39-26.95 128.31-28.15 127.24-29.35 125.64-29.35L125.64-29.35Q123.84-29.35 122.89-28.13 121.94-26.9 121.94-25.3L121.94-25.3 121.94-9.7Q121.94-7.85 123.01-6.7 124.09-5.55 125.64-5.55L125.64-5.55Q127.24-5.55 128.31-6.83 129.39-8.1 129.39-9.7L129.39-9.7 129.39-12Q129.39-12.2 129.59-12.2L129.59-12.2 135.24-12.2Q135.44-12.2 135.44-12L135.44-12 135.44-9.7Q135.44-6.85 134.11-4.55 132.79-2.25 130.59-0.88 128.39 0.5 125.64 0.5ZM148.33 0.5L148.33 0.5Q145.63 0.5 143.41-0.88 141.18-2.25 139.83-4.53 138.48-6.8 138.48-9.55L138.48-9.55 138.53-25.4Q138.53-28.15 139.86-30.4 141.18-32.65 143.43-34 145.68-35.35 148.33-35.35L148.33-35.35Q151.03-35.35 153.23-34 155.43-32.65 156.76-30.4 158.08-28.15 158.08-25.4L158.08-25.4 158.13-9.55Q158.13-6.8 156.81-4.53 155.48-2.25 153.26-0.88 151.03 0.5 148.33 0.5ZM148.33-5.55L148.33-5.55Q149.83-5.55 150.96-6.78 152.08-8 152.08-9.55L152.08-9.55 152.03-25.4Q152.03-27.05 150.98-28.2 149.93-29.35 148.33-29.35L148.33-29.35Q146.78-29.35 145.68-28.23 144.58-27.1 144.58-25.4L144.58-25.4 144.58-9.55Q144.58-7.9 145.68-6.73 146.78-5.55 148.33-5.55ZM171.13-0.05L162.18 0Q161.93 0 161.93-0.25L161.93-0.25 162.03-34.6Q162.03-34.8 162.23-34.8L162.23-34.8 171.58-34.85Q174.33-34.9 176.61-33.55 178.88-32.2 180.23-29.93 181.58-27.65 181.58-24.9L181.58-24.9 181.58-10.55Q181.58-7.65 180.18-5.28 178.78-2.9 176.43-1.5 174.08-0.1 171.13-0.05L171.13-0.05ZM168.08-28.8L168.03-6.15 171.13-6.15Q172.98-6.15 174.25-7.45 175.53-8.75 175.53-10.55L175.53-10.55 175.53-24.95Q175.53-26.55 174.36-27.73 173.18-28.9 171.58-28.85L171.58-28.85 168.08-28.8ZM201.88 0L185.73 0Q185.53 0 185.53-0.25L185.53-0.25 185.58-34.6Q185.58-34.8 185.78-34.8L185.78-34.8 201.83-34.8Q202.03-34.8 202.03-34.55L202.03-34.55 202.03-28.95Q202.03-28.75 201.83-28.75L201.83-28.75 191.58-28.75 191.58-20.95 201.83-20.95Q202.03-20.95 202.03-20.75L202.03-20.75 202.08-15.1Q202.08-14.9 201.88-14.9L201.88-14.9 191.58-14.9 191.58-6.15 201.88-6.15Q202.08-6.15 202.08-5.9L202.08-5.9 202.08-0.2Q202.08 0 201.88 0L201.88 0ZM219.82 0L214.17 0Q213.92 0 213.92-0.25L213.92-0.25 213.97-34.6Q213.97-34.8 214.17-34.8L214.17-34.8 219.77-34.8Q219.97-34.8 219.97-34.6L219.97-34.6 220.02-0.25Q220.02 0 219.82 0L219.82 0ZM229.87 0L224.87 0Q224.47 0 224.47-0.35L224.47-0.35 224.42-34.4Q224.42-34.8 224.82-34.8L224.82-34.8 229.32-34.8 237.77-15.1 237.52-34.4Q237.52-34.8 237.97-34.8L237.97-34.8 242.92-34.8Q243.22-34.8 243.22-34.4L243.22-34.4 243.27-0.3Q243.27 0 243.02 0L243.02 0 238.62 0 229.97-18.4 230.32-0.4Q230.32 0 229.87 0L229.87 0ZM260.87 0L255.22 0Q255.02 0 255.02-0.25L255.02-0.25 255.12-34.6Q255.12-34.8 255.32-34.8L255.32-34.8 261.42-34.8Q261.62-34.8 261.76-34.6L261.76-34.6 266.31-28 270.87-34.6Q271.01-34.8 271.22-34.8L271.22-34.8 277.37-34.8Q277.56-34.8 277.56-34.6L277.56-34.6 277.67-0.25Q277.67 0 277.47 0L277.47 0 271.81 0Q271.62 0 271.62-0.25L271.62-0.25 271.56-25.75 266.31-18.15 261.12-25.75 261.06-0.25Q261.06 0 260.87 0L260.87 0ZM280.16-0.25L280.16-0.25 286.36-34.6Q286.41-34.8 286.61-34.8L286.61-34.8 293.86-34.8Q294.06-34.8 294.11-34.6L294.11-34.6 300.06-0.25Q300.11 0 299.86 0L299.86 0 294.31 0Q294.11 0 294.06-0.25L294.06-0.25 293.51-3.9 286.71-3.9 286.16-0.25Q286.11 0 285.91 0L285.91 0 280.36 0Q280.16 0 280.16-0.25ZM289.96-23.3L287.71-9.25 292.51-9.25 290.46-23.3 290.16-25.15 289.96-23.3ZM309.06 0L303.41 0Q303.21 0 303.21-0.25L303.21-0.25 303.31-34.6Q303.31-34.8 303.51-34.8L303.51-34.8 313.61-34.8Q316.31-34.8 318.59-33.48 320.86-32.15 322.21-29.93 323.56-27.7 323.56-24.9L323.56-24.9Q323.56-23.05 323.01-21.58 322.46-20.1 321.71-19.07 320.96-18.05 320.36-17.55L320.36-17.55Q323.06-14.55 323.06-10.5L323.06-10.5 323.11-0.25Q323.11 0 322.86 0L322.86 0 317.21 0Q317.01 0 317.01-0.15L317.01-0.15 317.01-10.5Q317.01-12.3 315.74-13.63 314.46-14.95 312.61-14.95L312.61-14.95 309.31-14.95 309.26-0.25Q309.26 0 309.06 0L309.06 0ZM309.31-28.8L309.31-20.95 313.61-20.95Q315.16-20.95 316.36-22.1 317.56-23.25 317.56-24.9L317.56-24.9Q317.56-26.5 316.39-27.65 315.21-28.8 313.61-28.8L313.61-28.8 309.31-28.8ZM325.61-0.25L325.61-0.25 331.81-34.6Q331.86-34.8 332.06-34.8L332.06-34.8 339.31-34.8Q339.51-34.8 339.56-34.6L339.56-34.6 345.51-0.25Q345.56 0 345.31 0L345.31 0 339.76 0Q339.56 0 339.51-0.25L339.51-0.25 338.96-3.9 332.16-3.9 331.61-0.25Q331.56 0 331.36 0L331.36 0 325.81 0Q325.61 0 325.61-0.25ZM335.41-23.3L333.16-9.25 337.96-9.25 335.91-23.3 335.61-25.15 335.41-23.3ZM356.91 0L351.26 0Q351.06 0 351.06-0.25L351.06-0.25 351.06-28.75 344.56-28.75Q344.31-28.75 344.31-29L344.31-29 344.36-34.6Q344.36-34.8 344.56-34.8L344.56-34.8 363.56-34.8Q363.81-34.8 363.81-34.6L363.81-34.6 363.81-29Q363.81-28.75 363.61-28.75L363.61-28.75 357.06-28.75 357.11-0.25Q357.11 0 356.91 0L356.91 0ZM372.1 0L366.45 0Q366.25 0 366.25-0.25L366.25-0.25 366.3-34.6Q366.3-34.8 366.55-34.8L366.55-34.8 372.1-34.8Q372.35-34.8 372.35-34.6L372.35-34.6 372.3-21 379.8-21 379.8-34.6Q379.8-34.8 380-34.8L380-34.8 385.55-34.8Q385.8-34.8 385.8-34.6L385.8-34.6 385.9-0.25Q385.9 0 385.65 0L385.65 0 380.05 0Q379.8 0 379.8-0.25L379.8-0.25 379.8-14.95 372.3-14.95 372.3-0.25Q372.3 0 372.1 0L372.1 0ZM395.9 0L390.25 0Q390 0 390-0.25L390-0.25 390.05-34.6Q390.05-34.8 390.25-34.8L390.25-34.8 395.85-34.8Q396.05-34.8 396.05-34.6L396.05-34.6 396.1-0.25Q396.1 0 395.9 0L395.9 0Z" opacity="1" transform="matrix(1,0,0,1,0,0)" fill="#000000" class="slogan-text-1" data-fill-palette-color="quaternary" id="text-1"></path></svg></g></svg></g></svg></g></svg></g><g></g></svg></g><defs></defs></svg><rect width="189.09970232277902" height="247.2" fill="none" stroke="none" visibility="hidden"></rect></g></svg></g></svg>